<?xml version="1.0" encoding="utf-8"?>
<!-- Generator: Adobe Illustrator 17.0.0, SVG Export Plug-In . SVG Version: 6.00 Build 0)  -->
<!DOCTYPE svg PUBLIC "-//W3C//DTD SVG 1.1//EN" "http://www.w3.org/Graphics/SVG/1.1/DTD/svg11.dtd">
<svg version="1.1" id="圖層_1" xmlns="http://www.w3.org/2000/svg" xmlns:xlink="http://www.w3.org/1999/xlink" x="0px" y="0px"
	 width="101px" height="54px" viewBox="0 0 101 54" enable-background="new 0 0 101 54" xml:space="preserve">
<g>
	<polygon fill="#9C1F24" points="82.899,48.506 18,48.533 18,9.327 80.818,9.354 	"/>
	<g>
		<polygon fill="none" points="57.398,16 57.084,22 70.313,22 69.999,16 		"/>
		<rect x="70.156" y="16.329" fill="none" width="0.001" height="6.008"/>
		<g>
			<path fill="#FFFFFF" d="M82.666,30H70.733H69v-3h1.575h11.933l-0.786-15H69.789H57.603H45.746L44.96,27h11.857l-0.157,3H44.803
				l-0.21,4H56.45H59v12h10V34h1.942h11.933L82.666,30z M57.084,22l0.314-6h12.601H70l0.313,6H57.084z"/>
			<polygon fill="#FFFFFF" points="44,45.653 44,46 55.821,46 56.345,36 44.488,36 			"/>
			<polygon fill="#FFFFFF" points="82.98,36 71.047,36 71.571,46 83.504,46 			"/>
		</g>
	</g>
	<g>
		<polygon fill="#FFFFFF" points="24.137,12 23.718,20 28,20 28,46 38.763,46 40.545,12 		"/>
		
			<line fill="none" stroke="#FFFFFF" stroke-width="0" stroke-linecap="round" stroke-linejoin="round" x1="40.545" y1="12.333" x2="38.763" y2="46.333"/>
	</g>
</g>
</svg>
